{"glyphs":{"0":{"ha":833,"x_min":126,"x_max":706,"o":"m 242 875 l 590 875 l 590 760 l 706 760 l 706 -51 l 590 -51 l 590 -167 l 242 -167 l 242 -51 l 126 -51 l 126 760 l 242 760 l 242 875 m 589 760 l 243 760 l 243 -51 l 589 -51 l 589 760 z "},"1":{"ha":833,"x_min":300,"x_max":532,"o":"m 415 875 l 532 875 l 532 -167 l 415 -167 l 415 643 l 300 643 l 300 760 l 415 760 l 415 875 z "},"2":{"ha":833,"x_min":126,"x_max":706,"o":"m 242 875 l 590 875 l 590 760 l 706 760 l 706 413 l 590 413 l 590 760 l 242 760 l 242 875 m 242 -51 l 706 -51 l 706 -167 l 126 -167 l 126 65 l 242 65 l 242 -51 m 242 528 l 126 528 l 126 760 l 242 760 l 242 528 m 590 296 l 474 296 l 474 413 l 590 413 l 590 296 m 358 65 l 242 65 l 242 181 l 358 181 l 358 65 m 474 181 l 358 181 l 358 296 l 474 296 l 474 181 z "},"3":{"ha":833,"x_min":126,"x_max":706,"o":"m 242 875 l 590 875 l 590 760 l 706 760 l 706 413 l 590 413 l 590 760 l 242 760 l 242 875 m 590 296 l 706 296 l 706 -51 l 590 -51 l 590 296 l 358 296 l 358 413 l 590 413 l 590 296 m 590 -167 l 242 -167 l 242 -51 l 126 -51 l 126 181 l 242 181 l 242 -51 l 590 -51 l 590 -167 m 242 528 l 126 528 l 126 760 l 242 760 l 242 528 z "},"4":{"ha":833,"x_min":126,"x_max":706,"o":"m 474 528 l 358 528 l 358 760 l 474 760 l 474 875 l 590 875 l 590 181 l 706 181 l 706 65 l 590 65 l 590 -167 l 474 -167 l 474 65 l 126 65 l 126 296 l 240 296 l 242 181 l 474 181 l 474 528 m 242 528 l 357 528 l 358 296 l 242 296 l 242 528 z "},"5":{"ha":833,"x_min":126,"x_max":706,"o":"m 126 875 l 706 875 l 706 760 l 242 760 l 242 528 l 590 528 l 590 413 l 706 413 l 706 -51 l 590 -51 l 590 413 l 242 413 l 242 296 l 126 296 l 126 875 m 590 -167 l 242 -167 l 242 -51 l 126 -51 l 126 65 l 242 65 l 242 -51 l 590 -51 l 590 -167 z "},"6":{"ha":833,"x_min":126,"x_max":706,"o":"m 242 528 l 590 528 l 590 413 l 706 413 l 706 -51 l 590 -51 l 590 -167 l 242 -167 l 242 -51 l 126 -51 l 126 760 l 242 760 l 242 528 m 589 413 l 242 413 l 243 -51 l 589 -51 l 589 413 m 242 875 l 590 875 l 590 760 l 706 760 l 706 643 l 590 643 l 590 760 l 242 760 l 242 875 z "},"7":{"ha":833,"x_min":126,"x_max":706,"o":"m 126 875 l 706 875 l 706 528 l 590 528 l 590 760 l 242 760 l 242 643 l 126 643 l 126 875 m 474 -167 l 358 -167 l 358 296 l 474 296 l 474 -167 m 590 296 l 474 296 l 474 528 l 590 528 l 590 296 z "},"8":{"ha":833,"x_min":126,"x_max":706,"o":"m 590 296 l 242 296 l 242 413 l 126 413 l 126 760 l 242 760 l 242 875 l 590 875 l 590 760 l 706 760 l 706 413 l 590 413 l 590 296 l 706 296 l 706 -51 l 590 -51 l 590 296 m 589 760 l 243 760 l 243 413 l 589 413 l 589 760 m 590 -167 l 242 -167 l 242 -51 l 126 -51 l 126 296 l 242 296 l 242 -51 l 590 -51 l 590 -167 z "},"9":{"ha":833,"x_min":126,"x_max":706,"o":"m 242 875 l 590 875 l 590 760 l 706 760 l 706 -51 l 590 -51 l 590 181 l 242 181 l 242 296 l 126 296 l 126 760 l 242 760 l 242 875 m 589 760 l 243 760 l 243 296 l 590 296 l 589 760 m 590 -167 l 242 -167 l 242 -51 l 126 -51 l 126 65 l 242 65 l 242 -51 l 590 -51 l 590 -167 z "},"￿":{"ha":651,"x_min":0,"x_max":0,"o":""},"A":{"ha":833,"x_min":126,"x_max":706,"o":"m 472 643 l 358 643 l 358 875 l 474 875 l 474 643 l 590 643 l 590 181 l 706 181 l 706 -167 l 590 -167 l 590 181 l 242 181 l 242 643 l 357 643 l 358 296 l 474 296 l 472 643 m 242 -167 l 126 -167 l 126 181 l 242 181 l 242 -167 z "},"B":{"ha":833,"x_min":126,"x_max":706,"o":"m 590 296 l 242 296 l 242 -51 l 590 -51 l 590 -167 l 126 -167 l 126 875 l 590 875 l 590 760 l 706 760 l 706 413 l 590 413 l 590 296 l 706 296 l 706 -51 l 590 -51 l 590 296 m 589 760 l 242 760 l 242 413 l 589 413 l 589 760 z "},"C":{"ha":833,"x_min":126,"x_max":706,"o":"m 242 -51 l 590 -51 l 590 -167 l 242 -167 l 242 -51 l 126 -51 l 126 760 l 242 760 l 242 -51 m 242 875 l 590 875 l 590 760 l 706 760 l 706 528 l 590 528 l 590 760 l 242 760 l 242 875 m 590 181 l 706 181 l 706 -51 l 590 -51 l 590 181 z "},"D":{"ha":833,"x_min":126,"x_max":706,"o":"m 126 875 l 590 875 l 590 760 l 706 760 l 706 -51 l 590 -51 l 590 -167 l 126 -167 l 126 875 m 589 760 l 242 760 l 242 -51 l 589 -51 l 589 760 z "},"E":{"ha":833,"x_min":126,"x_max":706,"o":"m 126 875 l 706 875 l 706 760 l 242 760 l 242 413 l 706 413 l 706 296 l 242 296 l 242 -51 l 706 -51 l 706 -167 l 126 -167 l 126 875 z "},"F":{"ha":833,"x_min":126,"x_max":706,"o":"m 126 875 l 706 875 l 706 760 l 242 760 l 242 413 l 590 413 l 590 296 l 242 296 l 242 -167 l 126 -167 l 126 875 z "},"G":{"ha":833,"x_min":126,"x_max":706,"o":"m 242 -51 l 474 -51 l 474 -167 l 242 -167 l 242 -51 l 126 -51 l 126 760 l 242 760 l 242 -51 m 474 65 l 590 65 l 590 296 l 358 296 l 358 413 l 706 413 l 706 -167 l 590 -167 l 590 -51 l 474 -51 l 474 65 m 242 875 l 590 875 l 590 760 l 706 760 l 706 528 l 590 528 l 590 760 l 242 760 l 242 875 z "},"H":{"ha":833,"x_min":126,"x_max":706,"o":"m 126 875 l 242 875 l 242 413 l 590 413 l 590 875 l 706 875 l 706 -167 l 590 -167 l 590 296 l 242 296 l 242 -167 l 126 -167 l 126 875 z "},"I":{"ha":833,"x_min":126,"x_max":706,"o":"m 126 875 l 706 875 l 706 760 l 474 760 l 474 -51 l 706 -51 l 706 -167 l 126 -167 l 126 -51 l 358 -51 l 358 760 l 126 760 l 126 875 z "},"J":{"ha":833,"x_min":126,"x_max":706,"o":"m 590 875 l 706 875 l 706 -51 l 590 -51 l 590 875 m 590 -167 l 242 -167 l 242 -51 l 126 -51 l 126 181 l 242 181 l 242 -51 l 590 -51 l 590 -167 z "},"K":{"ha":833,"x_min":126,"x_max":706,"o":"m 126 875 l 242 875 l 242 413 l 358 413 l 358 296 l 474 296 l 474 181 l 590 181 l 590 -51 l 706 -51 l 706 -167 l 590 -167 l 590 -51 l 474 -51 l 474 181 l 358 181 l 358 296 l 242 296 l 242 -167 l 126 -167 l 126 875 m 474 760 l 590 760 l 590 528 l 474 528 l 474 760 m 590 875 l 706 875 l 706 760 l 590 760 l 590 875 m 358 528 l 474 528 l 474 413 l 358 413 l 358 528 z "},"L":{"ha":833,"x_min":126,"x_max":706,"o":"m 126 875 l 242 875 l 242 -51 l 706 -51 l 706 -167 l 126 -167 l 126 875 z "},"M":{"ha":833,"x_min":126,"x_max":706,"o":"m 126 875 l 242 875 l 242 643 l 358 643 l 358 413 l 474 413 l 474 181 l 358 181 l 358 413 l 242 413 l 242 -167 l 126 -167 l 126 875 m 474 643 l 590 643 l 590 875 l 706 875 l 706 -167 l 590 -167 l 590 413 l 474 413 l 474 643 z "},"N":{"ha":833,"x_min":126,"x_max":706,"o":"m 126 875 l 242 875 l 242 760 l 358 760 l 358 528 l 474 528 l 474 296 l 590 296 l 590 875 l 706 875 l 706 -167 l 590 -167 l 590 65 l 474 65 l 474 296 l 358 296 l 358 528 l 242 528 l 242 -167 l 126 -167 l 126 875 z "},"O":{"ha":833,"x_min":126,"x_max":706,"o":"m 242 875 l 590 875 l 590 760 l 706 760 l 706 -51 l 590 -51 l 590 -167 l 242 -167 l 242 -51 l 126 -51 l 126 760 l 242 760 l 242 875 m 589 760 l 243 760 l 243 -51 l 589 -51 l 589 760 z "},"P":{"ha":833,"x_min":126,"x_max":706,"o":"m 126 875 l 590 875 l 590 760 l 706 760 l 706 413 l 590 413 l 590 296 l 242 296 l 242 -167 l 126 -167 l 126 875 m 589 760 l 242 760 l 242 413 l 589 413 l 589 760 z "},"Q":{"ha":833,"x_min":126,"x_max":706,"o":"m 242 875 l 590 875 l 590 760 l 706 760 l 706 -50 l 590 -50 l 590 -167 l 706 -167 l 706 -282 l 590 -282 l 590 -167 l 242 -167 l 242 -50 l 126 -50 l 126 760 l 242 760 l 242 875 m 589 760 l 243 760 l 243 -50 l 358 -50 l 358 65 l 474 65 l 474 -50 l 589 -50 l 589 760 z "},"R":{"ha":833,"x_min":126,"x_max":706,"o":"m 126 875 l 590 875 l 590 760 l 706 760 l 706 413 l 590 413 l 590 181 l 706 181 l 706 -167 l 590 -167 l 590 181 l 474 181 l 474 296 l 242 296 l 242 -167 l 126 -167 l 126 875 m 589 760 l 242 760 l 242 413 l 589 413 l 589 760 z "},"S":{"ha":833,"x_min":126,"x_max":706,"o":"m 242 528 l 358 528 l 358 413 l 474 413 l 474 296 l 590 296 l 590 181 l 706 181 l 706 -51 l 590 -51 l 590 181 l 474 181 l 474 296 l 358 296 l 358 413 l 242 413 l 242 528 l 126 528 l 126 760 l 242 760 l 242 528 m 590 -167 l 242 -167 l 242 -51 l 126 -51 l 126 181 l 242 181 l 242 -51 l 590 -51 l 590 -167 m 242 875 l 590 875 l 590 760 l 706 760 l 706 528 l 590 528 l 590 760 l 242 760 l 242 875 z "},"T":{"ha":833,"x_min":126,"x_max":706,"o":"m 126 875 l 706 875 l 706 760 l 474 760 l 474 -167 l 358 -167 l 358 760 l 126 760 l 126 875 z "},"U":{"ha":833,"x_min":126,"x_max":706,"o":"m 126 875 l 242 875 l 242 -51 l 590 -51 l 590 -167 l 242 -167 l 242 -51 l 126 -51 l 126 875 m 590 875 l 706 875 l 706 -51 l 590 -51 l 590 875 z "},"V":{"ha":833,"x_min":126,"x_max":706,"o":"m 126 875 l 242 875 l 242 528 l 358 528 l 358 181 l 474 181 l 474 -167 l 358 -167 l 358 181 l 242 181 l 242 528 l 126 528 l 126 875 m 474 528 l 590 528 l 590 181 l 474 181 l 474 528 m 590 875 l 706 875 l 706 528 l 590 528 l 590 875 z "},"W":{"ha":833,"x_min":126,"x_max":706,"o":"m 126 875 l 242 875 l 242 181 l 358 181 l 358 -167 l 242 -167 l 242 181 l 126 181 l 126 875 m 358 875 l 474 875 l 474 181 l 590 181 l 590 -167 l 474 -167 l 474 181 l 358 181 l 358 875 m 590 875 l 706 875 l 706 181 l 590 181 l 590 875 z "},"X":{"ha":833,"x_min":126,"x_max":706,"o":"m 126 875 l 242 875 l 242 643 l 358 643 l 358 413 l 474 413 l 474 296 l 590 296 l 590 65 l 706 65 l 706 -167 l 590 -167 l 590 65 l 474 65 l 474 296 l 358 296 l 358 413 l 242 413 l 242 643 l 126 643 l 126 875 m 474 643 l 590 643 l 590 413 l 474 413 l 474 643 m 358 65 l 242 65 l 242 296 l 358 296 l 358 65 m 590 875 l 706 875 l 706 643 l 590 643 l 590 875 m 242 -167 l 126 -167 l 126 65 l 242 65 l 242 -167 z "},"Y":{"ha":833,"x_min":126,"x_max":706,"o":"m 126 875 l 242 875 l 242 528 l 358 528 l 358 296 l 474 296 l 474 -167 l 358 -167 l 358 296 l 242 296 l 242 528 l 126 528 l 126 875 m 590 875 l 706 875 l 706 528 l 590 528 l 590 875 m 474 528 l 590 528 l 590 296 l 474 296 l 474 528 z "},"Z":{"ha":833,"x_min":126,"x_max":706,"o":"m 126 875 l 706 875 l 706 643 l 590 643 l 590 760 l 126 760 l 126 875 m 242 -51 l 706 -51 l 706 -167 l 126 -167 l 126 65 l 242 65 l 242 -51 m 358 65 l 242 65 l 242 296 l 358 296 l 358 65 m 590 413 l 474 413 l 474 643 l 590 643 l 590 413 m 474 296 l 358 296 l 358 413 l 474 413 l 474 296 z "},"a":{"ha":833,"x_min":126,"x_max":706,"o":"m 126 643 l 590 643 l 590 528 l 706 528 l 706 -167 l 242 -167 l 242 -51 l 126 -51 l 126 181 l 242 181 l 242 296 l 590 296 l 590 528 l 126 528 l 126 643 m 590 181 l 243 181 l 243 -51 l 590 -51 l 590 181 z "},"b":{"ha":833,"x_min":126,"x_max":706,"o":"m 126 875 l 242 875 l 242 643 l 590 643 l 590 528 l 706 528 l 706 -51 l 590 -51 l 590 -167 l 126 -167 l 126 875 m 589 528 l 242 528 l 242 -51 l 589 -51 l 589 528 z "},"c":{"ha":833,"x_min":126,"x_max":706,"o":"m 242 -51 l 590 -51 l 590 -167 l 242 -167 l 242 -51 l 126 -51 l 126 528 l 242 528 l 242 -51 m 242 643 l 590 643 l 590 528 l 706 528 l 706 411 l 590 411 l 590 528 l 242 528 l 242 643 m 590 65 l 706 65 l 706 -51 l 590 -51 l 590 65 z "},"d":{"ha":833,"x_min":126,"x_max":706,"o":"m 590 875 l 706 875 l 706 -167 l 242 -167 l 242 -51 l 126 -51 l 126 528 l 242 528 l 242 643 l 590 643 l 590 875 m 590 528 l 243 528 l 243 -51 l 590 -51 l 590 528 z "},"e":{"ha":833,"x_min":126,"x_max":706,"o":"m 242 643 l 590 643 l 590 528 l 706 528 l 706 181 l 242 181 l 242 -51 l 590 -51 l 590 -167 l 242 -167 l 242 -51 l 126 -51 l 126 528 l 242 528 l 242 643 m 589 528 l 243 528 l 242 296 l 590 296 l 589 528 m 590 65 l 706 65 l 706 -51 l 590 -51 l 590 65 z "},"f":{"ha":833,"x_min":185,"x_max":647,"o":"m 415 528 l 647 528 l 647 413 l 415 413 l 415 -167 l 300 -167 l 300 413 l 185 413 l 185 528 l 300 528 l 300 760 l 415 760 l 415 528 m 415 875 l 647 875 l 647 760 l 415 760 l 415 875 z "},"g":{"ha":833,"x_min":126,"x_max":706,"o":"m 242 644 l 706 644 l 706 -167 l 590 -167 l 590 65 l 242 65 l 242 181 l 126 181 l 126 529 l 242 529 l 242 644 m 590 529 l 243 529 l 243 181 l 590 181 l 590 529 m 590 -282 l 242 -282 l 242 -167 l 126 -167 l 126 -50 l 242 -50 l 242 -167 l 590 -167 l 590 -282 z "},"h":{"ha":833,"x_min":126,"x_max":706,"o":"m 126 875 l 242 875 l 242 643 l 590 643 l 590 528 l 706 528 l 706 -167 l 590 -167 l 590 528 l 242 528 l 242 -167 l 126 -167 l 126 875 z "},"i":{"ha":833,"x_min":243,"x_max":590,"o":"m 243 643 l 475 643 l 475 -51 l 590 -51 l 590 -167 l 243 -167 l 243 -51 l 358 -51 l 358 528 l 243 528 l 243 643 m 358 875 l 475 875 l 475 760 l 358 760 l 358 875 z "},"j":{"ha":833,"x_min":243,"x_max":590,"o":"m 358 643 l 590 643 l 590 -167 l 475 -167 l 475 528 l 358 528 l 358 643 m 475 -282 l 243 -282 l 243 -167 l 475 -167 l 475 -282 m 475 875 l 590 875 l 590 760 l 475 760 l 475 875 z "},"k":{"ha":833,"x_min":126,"x_max":706,"o":"m 126 875 l 242 875 l 242 296 l 358 296 l 358 181 l 474 181 l 474 65 l 590 65 l 590 -51 l 706 -51 l 706 -167 l 590 -167 l 590 -51 l 474 -51 l 474 65 l 358 65 l 358 181 l 242 181 l 242 -167 l 126 -167 l 126 875 m 358 413 l 474 413 l 474 296 l 358 296 l 358 413 m 474 528 l 590 528 l 590 413 l 474 413 l 474 528 m 590 643 l 706 643 l 706 528 l 590 528 l 590 643 z "},"l":{"ha":833,"x_min":243,"x_max":590,"o":"m 243 875 l 475 875 l 475 -51 l 590 -51 l 590 -167 l 243 -167 l 243 -51 l 358 -51 l 358 760 l 243 760 l 243 875 z "},"m":{"ha":833,"x_min":126,"x_max":706,"o":"m 126 643 l 358 643 l 358 528 l 474 528 l 474 -167 l 358 -167 l 358 528 l 242 528 l 242 -167 l 126 -167 l 126 643 m 474 643 l 590 643 l 590 528 l 706 528 l 706 -167 l 590 -167 l 590 528 l 474 528 l 474 643 z "},"n":{"ha":833,"x_min":126,"x_max":706,"o":"m 126 643 l 590 643 l 590 528 l 706 528 l 706 -167 l 590 -167 l 590 528 l 242 528 l 242 -167 l 126 -167 l 126 643 z "},"o":{"ha":833,"x_min":126,"x_max":706,"o":"m 242 643 l 590 643 l 590 528 l 706 528 l 706 -51 l 590 -51 l 590 -167 l 242 -167 l 242 -51 l 126 -51 l 126 528 l 242 528 l 242 643 m 589 528 l 243 528 l 243 -51 l 589 -51 l 589 528 z "},"p":{"ha":833,"x_min":126,"x_max":706,"o":"m 126 644 l 590 644 l 590 529 l 706 529 l 706 65 l 590 65 l 590 -50 l 242 -50 l 242 -282 l 126 -282 l 126 644 m 589 529 l 242 529 l 242 65 l 589 65 l 589 529 z "},"q":{"ha":833,"x_min":126,"x_max":706,"o":"m 242 644 l 706 644 l 706 -282 l 590 -282 l 590 -50 l 242 -50 l 242 65 l 126 65 l 126 529 l 242 529 l 242 644 m 590 529 l 243 529 l 243 65 l 590 65 l 590 529 z "},"r":{"ha":833,"x_min":185,"x_max":647,"o":"m 185 643 l 300 643 l 300 528 l 415 528 l 415 411 l 300 411 l 300 -167 l 185 -167 l 185 643 m 415 643 l 647 643 l 647 528 l 415 528 l 415 643 z "},"s":{"ha":833,"x_min":126,"x_max":706,"o":"m 242 296 l 590 296 l 590 181 l 706 181 l 706 -51 l 590 -51 l 590 181 l 242 181 l 242 296 l 126 296 l 126 528 l 242 528 l 242 296 m 590 -167 l 242 -167 l 242 -51 l 126 -51 l 126 65 l 242 65 l 242 -51 l 590 -51 l 590 -167 m 242 643 l 590 643 l 590 528 l 706 528 l 706 411 l 590 411 l 590 528 l 242 528 l 242 643 z "},"t":{"ha":833,"x_min":185,"x_max":647,"o":"m 300 875 l 415 875 l 415 643 l 647 643 l 647 528 l 415 528 l 415 -51 l 647 -51 l 647 -167 l 415 -167 l 415 -51 l 300 -51 l 300 528 l 185 528 l 185 643 l 300 643 l 300 875 z "},"u":{"ha":833,"x_min":126,"x_max":706,"o":"m 126 643 l 242 643 l 242 -51 l 590 -51 l 590 643 l 706 643 l 706 -167 l 242 -167 l 242 -51 l 126 -51 l 126 643 z "},"v":{"ha":833,"x_min":126,"x_max":706,"o":"m 126 643 l 242 643 l 242 296 l 358 296 l 358 65 l 474 65 l 474 -167 l 358 -167 l 358 65 l 242 65 l 242 296 l 126 296 l 126 643 m 590 643 l 706 643 l 706 296 l 590 296 l 590 643 m 474 296 l 590 296 l 590 65 l 474 65 l 474 296 z "},"w":{"ha":833,"x_min":126,"x_max":706,"o":"m 126 643 l 242 643 l 242 181 l 358 181 l 358 643 l 474 643 l 474 181 l 590 181 l 590 -167 l 474 -167 l 474 65 l 358 65 l 358 -167 l 242 -167 l 242 181 l 126 181 l 126 643 m 590 643 l 706 643 l 706 181 l 590 181 l 590 643 z "},"x":{"ha":833,"x_min":126,"x_max":706,"o":"m 126 643 l 242 643 l 242 411 l 358 411 l 358 296 l 474 296 l 474 181 l 590 181 l 590 65 l 706 65 l 706 -167 l 590 -167 l 590 65 l 474 65 l 474 181 l 358 181 l 358 296 l 242 296 l 242 411 l 126 411 l 126 643 m 242 -167 l 126 -167 l 126 65 l 242 65 l 242 -167 m 590 643 l 706 643 l 706 411 l 590 411 l 590 643 m 358 65 l 242 65 l 242 181 l 358 181 l 358 65 m 474 411 l 590 411 l 590 296 l 474 296 l 474 411 z "},"y":{"ha":833,"x_min":126,"x_max":706,"o":"m 126 644 l 242 644 l 242 297 l 358 297 l 358 65 l 474 65 l 474 -167 l 358 -167 l 358 65 l 242 65 l 242 297 l 126 297 l 126 644 m 590 644 l 706 644 l 706 297 l 590 297 l 590 644 m 474 297 l 590 297 l 590 65 l 474 65 l 474 297 m 358 -282 l 126 -282 l 126 -167 l 358 -167 l 358 -282 z "},"z":{"ha":833,"x_min":126,"x_max":706,"o":"m 126 643 l 706 643 l 706 411 l 590 411 l 590 528 l 126 528 l 126 643 m 242 -51 l 706 -51 l 706 -167 l 126 -167 l 126 65 l 242 65 l 242 -51 m 358 65 l 242 65 l 242 181 l 358 181 l 358 65 m 590 296 l 474 296 l 474 411 l 590 411 l 590 296 m 474 181 l 358 181 l 358 296 l 474 296 l 474 181 z "},"。":{"ha":1528,"x_min":532,"x_max":994,"o":"m 647 296 l 879 296 l 879 181 l 649 181 l 649 -51 l 879 -51 l 879 -167 l 647 -167 l 647 -51 l 532 -51 l 532 181 l 647 181 l 647 296 m 881 181 l 994 181 l 994 -51 l 881 -51 l 881 181 z "},"下":{"ha":1528,"x_min":126,"x_max":1400,"o":"m 126 992 l 1400 992 l 1400 876 l 706 876 l 706 -282 l 589 -282 l 589 876 l 126 876 l 126 992 m 821 644 l 938 644 l 938 529 l 1053 529 l 1053 413 l 1168 413 l 1168 297 l 1285 297 l 1285 181 l 1168 181 l 1168 297 l 1053 297 l 1053 413 l 938 413 l 938 529 l 821 529 l 821 644 z "},"个":{"ha":1528,"x_min":126,"x_max":1400,"o":"m 706 992 l 821 992 l 821 876 l 938 876 l 938 760 l 1053 760 l 1053 644 l 1168 644 l 1168 529 l 1400 529 l 1400 413 l 1168 413 l 1168 529 l 1053 529 l 1053 644 l 938 644 l 938 760 l 821 760 l 821 876 l 706 876 l 706 992 m 706 413 l 821 413 l 821 -282 l 706 -282 l 706 413 m 358 413 l 126 413 l 126 529 l 358 529 l 358 413 m 706 760 l 589 760 l 589 876 l 706 876 l 706 760 m 589 644 l 474 644 l 474 760 l 589 760 l 589 644 m 474 529 l 358 529 l 358 644 l 474 644 l 474 529 z "},"了":{"ha":1528,"x_min":185,"x_max":1342,"o":"m 185 992 l 1342 992 l 1342 760 l 1226 760 l 1226 876 l 185 876 l 185 992 m 879 -282 l 532 -282 l 532 -167 l 763 -167 l 763 413 l 879 413 l 879 -282 m 994 413 l 879 413 l 879 529 l 994 529 l 994 413 m 1226 644 l 1110 644 l 1110 760 l 1226 760 l 1226 644 m 1110 529 l 994 529 l 994 644 l 1110 644 l 1110 529 z "},"他":{"ha":1528,"x_min":126,"x_max":1400,"o":"m 821 413 l 706 413 l 706 -167 l 1285 -167 l 1285 65 l 1400 65 l 1400 -282 l 589 -282 l 589 413 l 474 413 l 474 529 l 589 529 l 589 876 l 706 876 l 706 529 l 821 529 l 821 413 m 358 -282 l 242 -282 l 242 413 l 126 413 l 126 529 l 242 529 l 242 760 l 358 760 l 358 -282 m 938 992 l 1053 992 l 1053 644 l 1168 644 l 1168 529 l 1053 529 l 1053 65 l 938 65 l 938 529 l 821 529 l 821 644 l 938 644 l 938 992 m 1168 760 l 1400 760 l 1400 181 l 1168 181 l 1168 297 l 1285 297 l 1285 644 l 1168 644 l 1168 760 m 358 992 l 474 992 l 474 760 l 358 760 l 358 992 z "},"以":{"ha":1528,"x_min":126,"x_max":1400,"o":"m 242 992 l 358 992 l 358 -50 l 589 -50 l 589 -167 l 242 -167 l 242 992 m 1168 992 l 1285 992 l 1285 181 l 1168 181 l 1168 992 m 589 992 l 706 992 l 706 760 l 821 760 l 821 413 l 706 413 l 706 760 l 589 760 l 589 992 m 1168 -50 l 1285 -50 l 1285 -167 l 1400 -167 l 1400 -282 l 1285 -282 l 1285 -167 l 1168 -167 l 1168 -50 l 1053 -50 l 1053 181 l 1168 181 l 1168 -50 m 938 -282 l 706 -282 l 706 -167 l 938 -167 l 938 -282 m 589 65 l 706 65 l 706 -50 l 589 -50 l 589 65 m 1053 -167 l 938 -167 l 938 -50 l 1053 -50 l 1053 -167 m 242 -282 l 126 -282 l 126 -167 l 242 -167 l 242 -282 m 706 181 l 821 181 l 821 65 l 706 65 l 706 181 z "},"体":{"ha":1528,"x_min":126,"x_max":1400,"o":"m 938 992 l 1053 992 l 1053 760 l 1400 760 l 1400 644 l 1285 644 l 1285 181 l 1400 181 l 1400 -50 l 1285 -50 l 1285 181 l 1168 181 l 1168 644 l 1053 644 l 1053 65 l 1168 65 l 1168 -50 l 1053 -50 l 1053 -282 l 938 -282 l 938 -50 l 821 -50 l 821 65 l 938 65 l 938 644 l 821 644 l 821 181 l 706 181 l 706 644 l 589 644 l 589 760 l 938 760 l 938 992 m 358 -282 l 242 -282 l 242 413 l 126 413 l 126 529 l 242 529 l 242 760 l 358 760 l 358 -282 m 706 -50 l 589 -50 l 589 181 l 706 181 l 706 -50 m 358 992 l 474 992 l 474 760 l 358 760 l 358 992 z "},"使":{"ha":1528,"x_min":126,"x_max":1400,"o":"m 938 992 l 1053 992 l 1053 876 l 1400 876 l 1400 760 l 1053 760 l 1053 644 l 1400 644 l 1400 181 l 1053 181 l 1053 -50 l 938 -50 l 938 181 l 589 181 l 589 644 l 938 644 l 938 760 l 589 760 l 589 876 l 938 876 l 938 992 m 358 -282 l 242 -282 l 242 413 l 126 413 l 126 529 l 242 529 l 242 760 l 358 760 l 358 -282 m 938 -167 l 1400 -167 l 1400 -282 l 938 -282 l 938 -167 l 821 -167 l 821 -50 l 706 -50 l 706 65 l 821 65 l 821 -50 l 938 -50 l 938 -167 m 938 529 l 706 529 l 706 297 l 938 297 l 938 529 m 1285 529 l 1053 529 l 1053 297 l 1285 297 l 1285 529 m 358 992 l 474 992 l 474 760 l 358 760 l 358 992 m 821 -282 l 589 -282 l 589 -167 l 821 -167 l 821 -282 z "},"全":{"ha":1528,"x_min":126,"x_max":1400,"o":"m 819 876 l 706 876 l 706 992 l 821 992 l 821 876 l 938 876 l 938 760 l 1168 760 l 1168 644 l 1400 644 l 1400 529 l 1168 529 l 1168 413 l 821 413 l 821 181 l 1168 181 l 1168 65 l 821 65 l 821 -167 l 1400 -167 l 1400 -282 l 126 -282 l 126 -167 l 706 -167 l 706 65 l 358 65 l 358 181 l 706 181 l 706 413 l 358 413 l 358 529 l 126 529 l 126 644 l 358 644 l 358 760 l 588 760 l 589 644 l 360 644 l 360 529 l 1167 529 l 1167 644 l 938 644 l 936 760 l 821 760 l 819 876 m 589 876 l 704 876 l 706 760 l 589 760 l 589 876 z "},"其":{"ha":1528,"x_min":126,"x_max":1400,"o":"m 358 992 l 474 992 l 474 876 l 1053 876 l 1053 992 l 1168 992 l 1168 876 l 1400 876 l 1400 760 l 1168 760 l 1168 181 l 1400 181 l 1400 65 l 126 65 l 126 181 l 358 181 l 358 760 l 126 760 l 126 876 l 358 876 l 358 992 m 1053 297 l 474 297 l 474 181 l 1053 181 l 1053 297 m 1053 529 l 474 529 l 474 413 l 1053 413 l 1053 529 m 1053 760 l 474 760 l 474 644 l 1053 644 l 1053 760 m 1053 -50 l 1168 -50 l 1168 -167 l 1400 -167 l 1400 -282 l 1168 -282 l 1168 -167 l 1053 -167 l 1053 -50 m 358 -282 l 126 -282 l 126 -167 l 358 -167 l 358 -282 m 358 -50 l 474 -50 l 474 -167 l 358 -167 l 358 -50 z "},"几":{"ha":1528,"x_min":126,"x_max":1400,"o":"m 474 992 l 1053 992 l 1053 -167 l 1285 -167 l 1285 181 l 1400 181 l 1400 -282 l 938 -282 l 938 876 l 589 876 l 589 181 l 474 181 l 474 992 m 474 -50 l 358 -50 l 358 181 l 474 181 l 474 -50 m 358 -167 l 242 -167 l 242 -50 l 358 -50 l 358 -167 m 242 -282 l 126 -282 l 126 -167 l 242 -167 l 242 -282 z "},"到":{"ha":1528,"x_min":126,"x_max":1400,"o":"m 358 644 l 706 644 l 706 529 l 589 529 l 589 297 l 938 297 l 938 181 l 589 181 l 589 -50 l 938 -50 l 938 -167 l 589 -167 l 589 -282 l 126 -282 l 126 -167 l 474 -167 l 474 181 l 126 181 l 126 297 l 474 297 l 474 529 l 126 529 l 126 644 l 242 644 l 242 760 l 358 760 l 358 644 m 1285 992 l 1400 992 l 1400 -282 l 1053 -282 l 1053 -167 l 1285 -167 l 1285 992 m 126 992 l 938 992 l 938 876 l 474 876 l 474 760 l 358 760 l 358 876 l 126 876 l 126 992 m 1053 876 l 1168 876 l 1168 -50 l 1053 -50 l 1053 876 m 706 760 l 821 760 l 821 644 l 938 644 l 938 529 l 821 529 l 821 644 l 706 644 l 706 760 z "},"前":{"ha":1528,"x_min":126,"x_max":1400,"o":"m 242 529 l 706 529 l 706 -282 l 474 -282 l 474 -167 l 589 -167 l 589 -50 l 358 -50 l 358 -282 l 242 -282 l 242 529 m 358 992 l 474 992 l 474 876 l 589 876 l 589 760 l 938 760 l 938 876 l 1053 876 l 1053 760 l 1400 760 l 1400 644 l 126 644 l 126 760 l 474 760 l 474 876 l 358 876 l 358 992 m 1168 529 l 1285 529 l 1285 -282 l 938 -282 l 938 -167 l 1168 -167 l 1168 529 m 821 413 l 938 413 l 938 -50 l 821 -50 l 821 413 m 589 181 l 358 181 l 358 65 l 589 65 l 589 181 m 589 413 l 358 413 l 358 297 l 589 297 l 589 413 m 1053 992 l 1168 992 l 1168 876 l 1053 876 l 1053 992 z "},"动":{"ha":1528,"x_min":126,"x_max":1400,"o":"m 938 992 l 1053 992 l 1053 760 l 1400 760 l 1400 -282 l 1168 -282 l 1168 -167 l 1285 -167 l 1285 644 l 1053 644 l 1053 -50 l 938 -50 l 938 644 l 821 644 l 821 760 l 938 760 l 938 992 m 358 413 l 126 413 l 126 529 l 821 529 l 821 413 l 474 413 l 474 65 l 358 65 l 358 413 m 938 -282 l 706 -282 l 706 -167 l 589 -167 l 589 181 l 706 181 l 706 -167 l 821 -167 l 821 -50 l 938 -50 l 938 -282 m 589 -282 l 126 -282 l 126 -167 l 242 -167 l 242 65 l 358 65 l 358 -167 l 589 -167 l 589 -282 m 242 876 l 706 876 l 706 760 l 242 760 l 242 876 z "},"去":{"ha":1528,"x_min":126,"x_max":1400,"o":"m 706 992 l 821 992 l 821 760 l 1285 760 l 1285 644 l 821 644 l 821 297 l 1400 297 l 1400 181 l 589 181 l 589 -50 l 474 -50 l 474 181 l 126 181 l 126 297 l 706 297 l 706 644 l 242 644 l 242 760 l 706 760 l 706 992 m 474 -167 l 1053 -167 l 1053 -282 l 242 -282 l 242 -167 l 358 -167 l 358 -50 l 474 -50 l 474 -167 m 1053 65 l 1168 65 l 1168 -167 l 1285 -167 l 1285 -282 l 1168 -282 l 1168 -167 l 1053 -167 l 1053 65 z "},"向":{"ha":1528,"x_min":126,"x_max":1400,"o":"m 474 992 l 706 992 l 706 876 l 1400 876 l 1400 -282 l 1053 -282 l 1053 -167 l 1285 -167 l 1285 760 l 242 760 l 242 -282 l 126 -282 l 126 876 l 474 876 l 474 992 m 474 529 l 1053 529 l 1053 -50 l 474 -50 l 474 529 m 938 413 l 589 413 l 589 65 l 938 65 l 938 413 z "},"喜":{"ha":1528,"x_min":126,"x_max":1400,"o":"m 706 992 l 821 992 l 821 876 l 1400 876 l 1400 760 l 821 760 l 821 644 l 1400 644 l 1400 529 l 1285 529 l 1285 297 l 1053 297 l 1053 181 l 1400 181 l 1400 65 l 1285 65 l 1285 -282 l 242 -282 l 242 65 l 126 65 l 126 181 l 474 181 l 474 297 l 242 297 l 242 529 l 126 529 l 126 644 l 706 644 l 706 760 l 126 760 l 126 876 l 706 876 l 706 992 m 1168 65 l 358 65 l 358 -167 l 1168 -167 l 1168 65 m 1168 529 l 358 529 l 358 413 l 1168 413 l 1168 529 m 938 297 l 589 297 l 589 181 l 938 181 l 938 297 z "},"图":{"ha":1528,"x_min":126,"x_max":1400,"o":"m 126 992 l 1400 992 l 1400 -282 l 126 -282 l 126 992 m 704 181 l 242 181 l 242 -167 l 589 -167 l 589 -50 l 474 -50 l 474 65 l 589 65 l 589 -50 l 706 -50 l 706 -167 l 1285 -167 l 1285 181 l 821 181 l 821 297 l 706 297 l 706 181 l 819 181 l 821 65 l 706 65 l 704 181 m 1285 644 l 1053 644 l 1053 529 l 938 529 l 938 644 l 474 644 l 474 760 l 589 760 l 589 876 l 242 876 l 242 644 l 474 644 l 474 529 l 589 529 l 589 413 l 821 413 l 821 297 l 1285 297 l 1285 644 m 1285 876 l 706 876 l 706 760 l 1285 760 l 1285 876 m 474 529 l 242 529 l 242 297 l 589 297 l 589 413 l 474 413 l 474 529 m 821 529 l 938 529 l 938 413 l 821 413 l 821 529 m 938 65 l 938 -50 l 821 -50 l 821 65 l 938 65 z "},"在":{"ha":1528,"x_min":126,"x_max":1400,"o":"m 938 529 l 1053 529 l 1053 297 l 1400 297 l 1400 181 l 1053 181 l 1053 -167 l 1400 -167 l 1400 -282 l 589 -282 l 589 -167 l 938 -167 l 938 181 l 589 181 l 589 297 l 938 297 l 938 529 m 589 992 l 706 992 l 706 876 l 1400 876 l 1400 760 l 706 760 l 706 644 l 589 644 l 589 760 l 126 760 l 126 876 l 589 876 l 589 992 m 474 -282 l 358 -282 l 358 181 l 242 181 l 242 297 l 358 297 l 358 413 l 474 413 l 474 -282 m 589 413 l 474 413 l 474 644 l 589 644 l 589 413 m 242 65 l 126 65 l 126 181 l 242 181 l 242 65 z "},"块":{"ha":1528,"x_min":126,"x_max":1400,"o":"m 821 181 l 474 181 l 474 297 l 821 297 l 821 760 l 589 760 l 589 876 l 821 876 l 821 992 l 938 992 l 938 876 l 1285 876 l 1285 297 l 1400 297 l 1400 181 l 938 181 l 938 65 l 1053 65 l 1053 -50 l 1168 -50 l 1168 -167 l 1400 -167 l 1400 -282 l 1168 -282 l 1168 -167 l 1053 -167 l 1053 -50 l 938 -50 l 938 65 l 821 65 l 821 181 m 242 992 l 358 992 l 358 644 l 474 644 l 474 529 l 358 529 l 358 65 l 474 65 l 474 -50 l 358 -50 l 358 -167 l 589 -167 l 589 -282 l 358 -282 l 358 -167 l 126 -167 l 126 -50 l 242 -50 l 242 529 l 126 529 l 126 644 l 242 644 l 242 992 m 1168 760 l 938 760 l 938 297 l 1168 297 l 1168 760 m 589 -50 l 706 -50 l 706 -167 l 589 -167 l 589 -50 m 706 65 l 821 65 l 821 -50 l 706 -50 l 706 65 z "},"备":{"ha":1528,"x_min":126,"x_max":1400,"o":"m 126 297 l 1400 297 l 1400 -282 l 126 -282 l 126 297 m 1053 760 l 589 760 l 588 644 l 474 644 l 474 760 l 242 760 l 242 992 l 358 992 l 358 876 l 1400 876 l 1400 760 l 1168 760 l 1168 644 l 1053 644 l 1053 529 l 1400 529 l 1400 413 l 1053 413 l 1053 529 l 589 529 l 589 644 l 1051 644 l 1053 760 m 1285 -50 l 821 -50 l 821 -167 l 1285 -167 l 1285 -50 m 706 -50 l 242 -50 l 242 -167 l 706 -167 l 706 -50 m 589 413 l 126 413 l 126 529 l 589 529 l 589 413 m 1285 181 l 821 181 l 821 65 l 1285 65 l 1285 181 m 706 181 l 242 181 l 242 65 l 706 65 l 706 181 m 242 644 l 126 644 l 126 760 l 242 760 l 242 644 z "},"字":{"ha":1528,"x_min":126,"x_max":1400,"o":"m 821 181 l 1400 181 l 1400 65 l 821 65 l 821 -282 l 474 -282 l 474 -167 l 706 -167 l 706 65 l 126 65 l 126 181 l 706 181 l 706 297 l 821 297 l 821 181 m 706 992 l 821 992 l 821 876 l 1400 876 l 1400 529 l 1285 529 l 1285 760 l 242 760 l 242 529 l 126 529 l 126 876 l 706 876 l 706 992 m 358 644 l 1168 644 l 1168 413 l 1053 413 l 1053 529 l 358 529 l 358 644 m 1053 297 l 821 297 l 821 413 l 1053 413 l 1053 297 z "},"小":{"ha":1528,"x_min":126,"x_max":1400,"o":"m 706 992 l 821 992 l 821 -282 l 474 -282 l 474 -167 l 706 -167 l 706 992 m 1168 644 l 1285 644 l 1285 297 l 1400 297 l 1400 65 l 1285 65 l 1285 297 l 1168 297 l 1168 644 m 242 644 l 358 644 l 358 297 l 242 297 l 242 644 m 242 65 l 126 65 l 126 297 l 242 297 l 242 65 z "},"左":{"ha":1528,"x_min":126,"x_max":1400,"o":"m 474 297 l 1285 297 l 1285 181 l 821 181 l 821 -167 l 1400 -167 l 1400 -282 l 242 -282 l 242 -167 l 706 -167 l 706 181 l 358 181 l 358 413 l 474 413 l 474 297 m 589 992 l 706 992 l 706 760 l 1400 760 l 1400 644 l 589 644 l 589 413 l 474 413 l 474 644 l 126 644 l 126 760 l 589 760 l 589 992 m 358 65 l 242 65 l 242 181 l 358 181 l 358 65 m 242 -50 l 126 -50 l 126 65 l 242 65 l 242 -50 z "},"己":{"ha":1528,"x_min":126,"x_max":1400,"o":"m 126 992 l 1285 992 l 1285 297 l 242 297 l 242 -167 l 1285 -167 l 1285 -50 l 1400 -50 l 1400 -282 l 126 -282 l 126 413 l 1168 413 l 1168 876 l 126 876 l 126 992 z "},"常":{"ha":1528,"x_min":126,"x_max":1400,"o":"m 358 644 l 1168 644 l 1168 297 l 821 297 l 821 181 l 1285 181 l 1285 -167 l 1053 -167 l 1053 -50 l 1168 -50 l 1168 65 l 821 65 l 821 -282 l 706 -282 l 706 65 l 358 65 l 358 -167 l 242 -167 l 242 181 l 706 181 l 706 297 l 358 297 l 358 644 m 358 992 l 474 992 l 474 876 l 706 876 l 706 992 l 821 992 l 821 876 l 1053 876 l 1053 992 l 1168 992 l 1168 876 l 1400 876 l 1400 529 l 1285 529 l 1285 760 l 242 760 l 242 529 l 126 529 l 126 876 l 358 876 l 358 992 m 1053 529 l 474 529 l 474 413 l 1053 413 l 1053 529 z "},"库":{"ha":1528,"x_min":126,"x_max":1400,"o":"m 821 413 l 706 413 l 706 297 l 589 297 l 589 413 l 474 413 l 474 529 l 706 529 l 706 644 l 819 644 l 821 760 l 358 760 l 357 -50 l 242 -50 l 242 876 l 706 876 l 706 992 l 821 992 l 821 876 l 1400 876 l 1400 760 l 938 760 l 938 644 l 821 644 l 821 529 l 1285 529 l 1285 413 l 938 413 l 938 181 l 1285 181 l 1285 65 l 938 65 l 938 -50 l 1400 -50 l 1400 -167 l 938 -167 l 938 -282 l 821 -282 l 821 -167 l 358 -167 l 358 -50 l 821 -50 l 821 65 l 474 65 l 474 297 l 589 297 l 589 181 l 821 181 l 821 413 m 242 -282 l 126 -282 l 126 -50 l 242 -50 l 242 -282 z "},"您":{"ha":1528,"x_min":126,"x_max":1400,"o":"m 706 992 l 821 992 l 821 876 l 1400 876 l 1400 644 l 1285 644 l 1285 760 l 1053 760 l 1053 181 l 821 181 l 821 297 l 938 297 l 938 760 l 706 760 l 706 992 m 474 65 l 589 65 l 589 -167 l 821 -167 l 821 -50 l 706 -50 l 706 65 l 821 65 l 821 -50 l 938 -50 l 938 -167 l 1053 -167 l 1053 -50 l 1168 -50 l 1168 -282 l 474 -282 l 474 65 m 474 297 l 589 297 l 589 181 l 358 181 l 358 644 l 242 644 l 242 760 l 358 760 l 358 876 l 474 876 l 474 297 m 1168 529 l 1285 529 l 1285 413 l 1400 413 l 1400 181 l 1285 181 l 1285 413 l 1168 413 l 1168 529 m 1168 65 l 1285 65 l 1285 -50 l 1400 -50 l 1400 -282 l 1285 -282 l 1285 -50 l 1168 -50 l 1168 65 m 242 65 l 358 65 l 358 -167 l 242 -167 l 242 65 m 706 529 l 821 529 l 821 413 l 706 413 l 706 529 m 589 413 l 706 413 l 706 297 l 589 297 l 589 413 m 706 644 l 589 644 l 589 760 l 706 760 l 706 644 m 474 992 l 589 992 l 589 876 l 474 876 l 474 992 m 242 -282 l 126 -282 l 126 -167 l 242 -167 l 242 -282 m 242 529 l 126 529 l 126 644 l 242 644 l 242 529 z "},"惊":{"ha":1528,"x_min":126,"x_max":1400,"o":"m 589 644 l 1400 644 l 1400 181 l 1053 181 l 1053 -282 l 821 -282 l 821 -167 l 938 -167 l 938 181 l 589 181 l 589 644 m 242 992 l 358 992 l 358 644 l 474 644 l 474 529 l 358 529 l 358 -282 l 242 -282 l 242 297 l 126 297 l 126 644 l 242 644 l 242 992 m 1285 529 l 706 529 l 706 297 l 1285 297 l 1285 529 m 938 992 l 1053 992 l 1053 876 l 1400 876 l 1400 760 l 589 760 l 589 876 l 938 876 l 938 992 m 589 65 l 706 65 l 706 -167 l 589 -167 l 589 65 m 1285 65 l 1400 65 l 1400 -167 l 1285 -167 l 1285 65 z "},"所":{"ha":1528,"x_min":126,"x_max":1400,"o":"m 126 992 l 821 992 l 821 876 l 1168 876 l 1168 760 l 938 760 l 938 529 l 1400 529 l 1400 413 l 1285 413 l 1285 -282 l 1168 -282 l 1168 413 l 938 413 l 938 -50 l 821 -50 l 821 876 l 126 876 l 126 992 m 242 644 l 706 644 l 706 181 l 358 181 l 358 -167 l 242 -167 l 242 644 m 589 529 l 358 529 l 358 297 l 589 297 l 589 529 m 1168 992 l 1400 992 l 1400 876 l 1168 876 l 1168 992 m 821 -282 l 706 -282 l 706 -50 l 821 -50 l 821 -282 m 242 -282 l 126 -282 l 126 -167 l 242 -167 l 242 -282 z "},"找":{"ha":1528,"x_min":126,"x_max":1400,"o":"m 821 992 l 938 992 l 938 644 l 1400 644 l 1400 529 l 938 529 l 938 181 l 1053 181 l 1053 -50 l 1168 -50 l 1168 -167 l 1285 -167 l 1285 -282 l 1168 -282 l 1168 -167 l 1053 -167 l 1053 -50 l 938 -50 l 938 181 l 821 181 l 821 529 l 589 529 l 589 644 l 821 644 l 821 992 m 242 992 l 358 992 l 358 760 l 474 760 l 474 644 l 358 644 l 358 413 l 474 413 l 474 297 l 358 297 l 358 -282 l 126 -282 l 126 -167 l 242 -167 l 242 181 l 126 181 l 126 297 l 242 297 l 242 644 l 126 644 l 126 760 l 242 760 l 242 992 m 1053 992 l 1168 992 l 1168 876 l 1285 876 l 1285 760 l 1168 760 l 1168 876 l 1053 876 l 1053 992 m 1053 413 l 1168 413 l 1168 181 l 1053 181 l 1053 413 m 1285 65 l 1400 65 l 1400 -167 l 1285 -167 l 1285 65 m 821 -282 l 589 -282 l 589 -167 l 821 -167 l 821 -282 m 938 -167 l 821 -167 l 821 -50 l 938 -50 l 938 -167 z "},"把":{"ha":1528,"x_min":126,"x_max":1400,"o":"m 589 992 l 1400 992 l 1400 297 l 706 297 l 706 -167 l 1285 -167 l 1285 65 l 1400 65 l 1400 -282 l 589 -282 l 589 992 m 242 992 l 358 992 l 358 760 l 474 760 l 474 644 l 358 644 l 358 413 l 474 413 l 474 297 l 358 297 l 358 -282 l 126 -282 l 126 -167 l 242 -167 l 242 181 l 126 181 l 126 297 l 242 297 l 242 644 l 126 644 l 126 760 l 242 760 l 242 992 m 938 876 l 706 876 l 706 413 l 938 413 l 938 876 m 1285 876 l 1053 876 l 1053 413 l 1285 413 l 1285 876 z "},"掉":{"ha":1528,"x_min":126,"x_max":1400,"o":"m 821 992 l 938 992 l 938 876 l 1400 876 l 1400 760 l 938 760 l 938 644 l 1400 644 l 1400 65 l 1053 65 l 1053 -50 l 1400 -50 l 1400 -167 l 1053 -167 l 1053 -282 l 938 -282 l 938 -167 l 474 -167 l 474 -50 l 938 -50 l 938 65 l 589 65 l 589 644 l 821 644 l 821 992 m 242 992 l 358 992 l 358 760 l 474 760 l 474 644 l 358 644 l 358 413 l 474 413 l 474 297 l 358 297 l 358 -282 l 126 -282 l 126 -167 l 242 -167 l 242 181 l 126 181 l 126 297 l 242 297 l 242 644 l 126 644 l 126 760 l 242 760 l 242 992 m 1285 529 l 706 529 l 706 413 l 1285 413 l 1285 529 m 1285 297 l 706 297 l 706 181 l 1285 181 l 1285 297 z "},"接":{"ha":1528,"x_min":126,"x_max":1400,"o":"m 1168 181 l 938 181 l 938 65 l 821 65 l 821 181 l 589 181 l 589 297 l 938 297 l 938 413 l 589 413 l 589 529 l 706 529 l 706 760 l 589 760 l 589 876 l 938 876 l 938 992 l 1053 992 l 1053 876 l 1400 876 l 1400 760 l 1285 760 l 1285 529 l 1400 529 l 1400 413 l 1053 413 l 1053 297 l 1400 297 l 1400 181 l 1285 181 l 1285 65 l 1168 65 l 1168 181 m 242 992 l 358 992 l 358 760 l 474 760 l 474 644 l 358 644 l 358 413 l 474 413 l 474 297 l 358 297 l 358 -282 l 126 -282 l 126 -167 l 242 -167 l 242 181 l 126 181 l 126 297 l 242 297 l 242 644 l 126 644 l 126 760 l 242 760 l 242 992 m 1168 -167 l 1400 -167 l 1400 -282 l 1168 -282 l 1168 -167 l 821 -167 l 821 -50 l 706 -50 l 706 65 l 821 65 l 821 -50 l 1053 -50 l 1053 65 l 1168 65 l 1168 -167 m 1168 760 l 821 760 l 821 529 l 1168 529 l 1168 760 m 821 -282 l 589 -282 l 589 -167 l 821 -167 l 821 -282 z "},"推":{"ha":1528,"x_min":126,"x_max":1400,"o":"m 242 992 l 358 992 l 358 760 l 474 760 l 474 644 l 589 644 l 589 760 l 706 760 l 706 992 l 821 992 l 821 760 l 1053 760 l 1053 992 l 1168 992 l 1168 760 l 1400 760 l 1400 644 l 1053 644 l 1053 413 l 1400 413 l 1400 297 l 1053 297 l 1053 181 l 1400 181 l 1400 65 l 1053 65 l 1053 -167 l 1400 -167 l 1400 -282 l 589 -282 l 589 529 l 474 529 l 474 644 l 358 644 l 358 413 l 474 413 l 474 297 l 358 297 l 358 -282 l 126 -282 l 126 -167 l 242 -167 l 242 181 l 126 181 l 126 297 l 242 297 l 242 644 l 126 644 l 126 760 l 242 760 l 242 992 m 938 65 l 706 65 l 706 -167 l 938 -167 l 938 65 m 938 644 l 706 644 l 706 413 l 938 413 l 938 644 m 938 297 l 706 297 l 706 181 l 938 181 l 938 297 z "},"提":{"ha":1528,"x_min":126,"x_max":1400,"o":"m 589 992 l 1400 992 l 1400 413 l 589 413 l 589 992 m 589 297 l 1400 297 l 1400 181 l 1053 181 l 1053 65 l 1400 65 l 1400 -50 l 1053 -50 l 1053 -167 l 1400 -167 l 1400 -282 l 821 -282 l 821 -167 l 706 -167 l 706 65 l 821 65 l 821 -167 l 938 -167 l 938 181 l 589 181 l 589 297 m 242 992 l 358 992 l 358 760 l 474 760 l 474 644 l 358 644 l 358 413 l 474 413 l 474 297 l 358 297 l 358 -282 l 126 -282 l 126 -167 l 242 -167 l 242 181 l 126 181 l 126 297 l 242 297 l 242 644 l 126 644 l 126 760 l 242 760 l 242 992 m 1285 876 l 706 876 l 706 760 l 1285 760 l 1285 876 m 1285 644 l 706 644 l 706 529 l 1285 529 l 1285 644 m 706 -282 l 589 -282 l 589 -167 l 706 -167 l 706 -282 z "},"操":{"ha":1528,"x_min":126,"x_max":1400,"o":"m 1053 644 l 938 644 l 938 297 l 1053 297 l 1053 181 l 1400 181 l 1400 65 l 1168 65 l 1168 -50 l 1285 -50 l 1285 -167 l 1400 -167 l 1400 -282 l 1285 -282 l 1285 -167 l 1168 -167 l 1168 -50 l 1053 -50 l 1053 -282 l 938 -282 l 938 -50 l 821 -50 l 821 65 l 589 65 l 589 181 l 938 181 l 938 297 l 589 297 l 589 644 l 706 644 l 706 992 l 1285 992 l 1285 644 l 1400 644 l 1400 297 l 1053 297 l 1053 644 m 242 992 l 358 992 l 358 760 l 474 760 l 474 644 l 358 644 l 358 413 l 474 413 l 474 297 l 358 297 l 358 -282 l 126 -282 l 126 -167 l 242 -167 l 242 181 l 126 181 l 126 297 l 242 297 l 242 644 l 126 644 l 126 760 l 242 760 l 242 992 m 1168 876 l 821 876 l 821 760 l 1168 760 l 1168 876 m 1285 529 l 1168 529 l 1168 413 l 1285 413 l 1285 529 m 706 -282 l 589 -282 l 589 -167 l 706 -167 l 706 -282 m 821 -167 l 706 -167 l 706 -50 l 821 -50 l 821 -167 m 821 529 l 706 529 l 706 413 l 821 413 l 821 529 z "},"放":{"ha":1528,"x_min":126,"x_max":1400,"o":"m 358 992 l 474 992 l 474 876 l 706 876 l 706 760 l 358 760 l 358 529 l 821 529 l 821 413 l 706 413 l 706 -282 l 474 -282 l 474 -167 l 589 -167 l 589 413 l 358 413 l 358 -50 l 242 -50 l 242 760 l 126 760 l 126 876 l 358 876 l 358 992 m 1168 760 l 938 760 l 936 529 l 821 529 l 821 992 l 938 992 l 938 876 l 1400 876 l 1400 760 l 1285 760 l 1285 181 l 1168 181 l 1168 -50 l 1285 -50 l 1285 -167 l 1400 -167 l 1400 -282 l 1285 -282 l 1285 -167 l 1168 -167 l 1168 -50 l 1053 -50 l 1053 181 l 1167 181 l 1168 760 m 938 529 l 1053 529 l 1051 181 l 938 181 l 938 529 m 242 -282 l 126 -282 l 126 -50 l 242 -50 l 242 -282 m 938 -282 l 821 -282 l 821 -167 l 938 -167 l 938 -282 m 1053 -167 l 938 -167 l 938 -50 l 1053 -50 l 1053 -167 z "},"方":{"ha":1528,"x_min":126,"x_max":1400,"o":"m 706 992 l 821 992 l 821 760 l 1400 760 l 1400 644 l 589 644 l 589 297 l 1285 297 l 1285 -282 l 821 -282 l 821 -167 l 1168 -167 l 1168 181 l 589 181 l 589 65 l 474 65 l 474 644 l 126 644 l 126 760 l 706 760 l 706 992 m 474 -167 l 358 -167 l 358 65 l 474 65 l 474 -167 m 358 -282 l 242 -282 l 242 -167 l 358 -167 l 358 -282 z "},"时":{"ha":1528,"x_min":126,"x_max":1400,"o":"m 126 876 l 589 876 l 589 -167 l 126 -167 l 126 876 m 1053 992 l 1168 992 l 1168 760 l 1400 760 l 1400 644 l 1168 644 l 1168 -282 l 821 -282 l 821 -167 l 1053 -167 l 1053 644 l 706 644 l 706 760 l 1053 760 l 1053 992 m 474 297 l 242 297 l 242 -50 l 474 -50 l 474 297 m 474 760 l 242 760 l 242 413 l 474 413 l 474 760 m 706 413 l 821 413 l 821 297 l 938 297 l 938 65 l 821 65 l 821 297 l 706 297 l 706 413 z "},"是":{"ha":1528,"x_min":126,"x_max":1400,"o":"m 242 992 l 1285 992 l 1285 413 l 242 413 l 242 992 m 126 297 l 1400 297 l 1400 181 l 821 181 l 821 65 l 1285 65 l 1285 -50 l 821 -50 l 821 -167 l 1400 -167 l 1400 -282 l 474 -282 l 474 -167 l 242 -167 l 242 65 l 358 65 l 358 -50 l 474 -50 l 474 -167 l 706 -167 l 706 181 l 126 181 l 126 297 m 1168 876 l 358 876 l 358 760 l 1168 760 l 1168 876 m 1168 644 l 358 644 l 358 529 l 1168 529 l 1168 644 m 242 -282 l 126 -282 l 126 -167 l 242 -167 l 242 -282 z "},"暂":{"ha":1528,"x_min":126,"x_max":1400,"o":"m 1053 529 l 938 529 l 938 297 l 821 297 l 821 876 l 1168 876 l 1168 760 l 938 760 l 938 644 l 1400 644 l 1400 529 l 1168 529 l 1168 181 l 1285 181 l 1285 -282 l 242 -282 l 242 181 l 358 181 l 358 297 l 126 297 l 126 413 l 358 413 l 358 529 l 126 529 l 126 644 l 242 644 l 242 760 l 126 760 l 126 876 l 358 876 l 358 992 l 474 992 l 474 876 l 706 876 l 706 760 l 358 760 l 358 644 l 706 644 l 706 529 l 474 529 l 474 413 l 706 413 l 706 297 l 819 297 l 821 181 l 706 181 l 704 297 l 474 297 l 474 181 l 360 181 l 358 65 l 1168 65 l 1167 181 l 1053 181 l 1053 529 m 1168 -50 l 358 -50 l 358 -167 l 1168 -167 l 1168 -50 m 1168 992 l 1400 992 l 1400 876 l 1168 876 l 1168 992 z "},"有":{"ha":1528,"x_min":126,"x_max":1400,"o":"m 474 529 l 1285 529 l 1285 -282 l 938 -282 l 938 -167 l 1168 -167 l 1168 -50 l 474 -50 l 474 -282 l 358 -282 l 358 297 l 242 297 l 242 413 l 358 413 l 358 644 l 474 644 l 474 529 m 474 992 l 589 992 l 589 876 l 1400 876 l 1400 760 l 589 760 l 589 644 l 474 644 l 474 760 l 126 760 l 126 876 l 474 876 l 474 992 m 1168 413 l 474 413 l 474 297 l 1168 297 l 1168 413 m 1168 181 l 474 181 l 474 65 l 1168 65 l 1168 181 m 242 181 l 126 181 l 126 297 l 242 297 l 242 181 z "},"杆":{"ha":1528,"x_min":126,"x_max":1400,"o":"m 589 413 l 938 413 l 938 876 l 589 876 l 589 992 l 1400 992 l 1400 876 l 1053 876 l 1053 413 l 1400 413 l 1400 297 l 1053 297 l 1053 -282 l 938 -282 l 938 297 l 589 297 l 589 413 m 358 992 l 474 992 l 474 760 l 589 760 l 589 644 l 474 644 l 474 297 l 589 297 l 589 181 l 474 181 l 474 -282 l 358 -282 l 358 181 l 242 181 l 242 413 l 358 413 l 358 644 l 126 644 l 126 760 l 358 760 l 358 992 m 242 65 l 126 65 l 126 181 l 242 181 l 242 65 z "},"没":{"ha":1528,"x_min":126,"x_max":1400,"o":"m 1285 297 l 589 297 l 589 181 l 706 181 l 706 65 l 821 65 l 821 -50 l 1053 -50 l 1053 -167 l 1400 -167 l 1400 -282 l 1053 -282 l 1053 -167 l 821 -167 l 821 -50 l 706 -50 l 706 65 l 589 65 l 589 181 l 474 181 l 474 413 l 1400 413 l 1400 181 l 1285 181 l 1285 297 m 589 992 l 1285 992 l 1285 644 l 1400 644 l 1400 529 l 1168 529 l 1168 876 l 706 876 l 706 529 l 474 529 l 474 644 l 589 644 l 589 992 m 242 181 l 358 181 l 358 -167 l 242 -167 l 242 181 m 821 -282 l 474 -282 l 474 -167 l 821 -167 l 821 -282 m 126 992 l 242 992 l 242 876 l 358 876 l 358 760 l 242 760 l 242 876 l 126 876 l 126 992 m 126 644 l 242 644 l 242 529 l 358 529 l 358 413 l 242 413 l 242 529 l 126 529 l 126 644 m 1285 65 l 1168 65 l 1168 181 l 1285 181 l 1285 65 m 1168 -50 l 1053 -50 l 1053 65 l 1168 65 l 1168 -50 m 242 -282 l 126 -282 l 126 -167 l 242 -167 l 242 -282 z "},"片":{"ha":1528,"x_min":126,"x_max":1400,"o":"m 242 992 l 358 992 l 358 644 l 821 644 l 821 992 l 938 992 l 938 644 l 1400 644 l 1400 529 l 358 529 l 358 297 l 1053 297 l 1053 -282 l 938 -282 l 938 181 l 358 181 l 358 -50 l 242 -50 l 242 992 m 242 -282 l 126 -282 l 126 -50 l 242 -50 l 242 -282 z "},"球":{"ha":1528,"x_min":126,"x_max":1400,"o":"m 938 992 l 1053 992 l 1053 760 l 1400 760 l 1400 644 l 1053 644 l 1053 -282 l 821 -282 l 821 -167 l 938 -167 l 938 644 l 589 644 l 589 760 l 938 760 l 938 992 m 126 992 l 474 992 l 474 876 l 358 876 l 358 529 l 474 529 l 474 413 l 358 413 l 358 65 l 474 65 l 474 -50 l 358 -50 l 358 -167 l 126 -167 l 126 -50 l 242 -50 l 242 413 l 126 413 l 126 529 l 242 529 l 242 876 l 126 876 l 126 992 m 1168 181 l 1285 181 l 1285 -50 l 1400 -50 l 1400 -167 l 1285 -167 l 1285 -50 l 1168 -50 l 1168 181 m 589 529 l 706 529 l 706 413 l 821 413 l 821 297 l 706 297 l 706 413 l 589 413 l 589 529 m 706 181 l 821 181 l 821 -50 l 706 -50 l 706 181 m 706 -167 l 589 -167 l 589 -50 l 706 -50 l 706 -167 m 1168 992 l 1285 992 l 1285 876 l 1168 876 l 1168 992 m 1285 297 l 1168 297 l 1168 413 l 1285 413 l 1285 297 m 1285 529 l 1400 529 l 1400 413 l 1285 413 l 1285 529 z "},"用":{"ha":1528,"x_min":185,"x_max":1342,"o":"m 300 992 l 1342 992 l 1342 -282 l 1110 -282 l 1110 -167 l 1226 -167 l 1226 181 l 879 181 l 879 -282 l 763 -282 l 763 181 l 417 181 l 417 -50 l 300 -50 l 300 992 m 1226 876 l 879 876 l 879 644 l 1226 644 l 1226 876 m 1226 529 l 879 529 l 879 297 l 1226 297 l 1226 529 m 763 876 l 417 876 l 417 644 l 763 644 l 763 876 m 763 529 l 417 529 l 417 297 l 763 297 l 763 529 m 300 -282 l 185 -282 l 185 -50 l 300 -50 l 300 -282 z "},"的":{"ha":1528,"x_min":126,"x_max":1400,"o":"m 474 760 l 706 760 l 706 -282 l 126 -282 l 126 760 l 358 760 l 358 876 l 474 876 l 474 760 m 938 992 l 1053 992 l 1053 760 l 1400 760 l 1400 -282 l 1053 -282 l 1053 -167 l 1285 -167 l 1285 644 l 938 644 l 938 992 m 589 644 l 242 644 l 242 297 l 589 297 l 589 644 m 589 181 l 242 181 l 242 -167 l 589 -167 l 589 181 m 938 413 l 1053 413 l 1053 297 l 1168 297 l 1168 65 l 1053 65 l 1053 297 l 938 297 l 938 413 l 821 413 l 821 644 l 938 644 l 938 413 m 474 992 l 589 992 l 589 876 l 474 876 l 474 992 z "},"砖":{"ha":1528,"x_min":126,"x_max":1400,"o":"m 126 992 l 589 992 l 589 876 l 358 876 l 358 529 l 589 529 l 589 -167 l 242 -167 l 242 297 l 126 297 l 126 413 l 242 413 l 242 876 l 126 876 l 126 992 m 938 992 l 1053 992 l 1053 876 l 1285 876 l 1285 760 l 1053 760 l 1053 529 l 1400 529 l 1400 413 l 938 413 l 938 297 l 1400 297 l 1400 181 l 1285 181 l 1285 65 l 1168 65 l 1168 181 l 706 181 l 706 297 l 821 297 l 821 413 l 706 413 l 706 529 l 938 529 l 938 760 l 706 760 l 706 876 l 938 876 l 938 992 m 474 413 l 358 413 l 358 -50 l 474 -50 l 474 413 m 1053 -167 l 1168 -167 l 1168 -282 l 1053 -282 l 1053 -167 l 938 -167 l 938 -50 l 821 -50 l 821 65 l 938 65 l 938 -50 l 1053 -50 l 1053 -167 m 1168 -50 l 1053 -50 l 1053 65 l 1168 65 l 1168 -50 z "},"破":{"ha":1528,"x_min":126,"x_max":1400,"o":"m 1285 413 l 821 413 l 821 297 l 938 297 l 938 181 l 1053 181 l 1053 65 l 1168 65 l 1168 -50 l 1285 -50 l 1285 -167 l 1400 -167 l 1400 -282 l 1285 -282 l 1285 -167 l 1168 -167 l 1168 -50 l 1053 -50 l 1053 -167 l 938 -167 l 938 -50 l 1053 -50 l 1051 65 l 938 65 l 936 181 l 821 181 l 821 -167 l 938 -167 l 938 -282 l 821 -282 l 821 -167 l 706 -167 l 706 -282 l 589 -282 l 589 -167 l 704 -167 l 704 876 l 474 876 l 474 644 l 358 644 l 358 876 l 126 876 l 126 992 l 706 992 l 706 876 l 1053 876 l 1053 992 l 1168 992 l 1168 876 l 1400 876 l 1400 644 l 1285 644 l 1285 760 l 1168 760 l 1168 529 l 1400 529 l 1400 181 l 1285 181 l 1285 413 m 242 -167 l 242 297 l 126 297 l 126 413 l 242 413 l 242 644 l 357 644 l 358 529 l 589 529 l 588 -167 l 242 -167 m 1053 760 l 821 760 l 821 529 l 1053 529 l 1053 760 m 474 413 l 358 413 l 358 -50 l 474 -50 l 474 413 m 1285 65 l 1168 65 l 1168 181 l 1285 181 l 1285 65 z "},"移":{"ha":1528,"x_min":126,"x_max":1400,"o":"m 358 992 l 589 992 l 589 876 l 474 876 l 474 644 l 706 644 l 706 529 l 474 529 l 474 413 l 589 413 l 589 297 l 706 297 l 706 181 l 589 181 l 589 297 l 474 297 l 474 -282 l 358 -282 l 358 181 l 242 181 l 242 413 l 358 413 l 358 529 l 126 529 l 126 644 l 358 644 l 358 760 l 126 760 l 126 876 l 358 876 l 358 992 m 1168 760 l 821 760 l 821 992 l 938 992 l 938 876 l 1285 876 l 1285 644 l 1168 644 l 1168 529 l 1053 529 l 1053 413 l 938 413 l 938 529 l 821 529 l 821 644 l 938 644 l 938 529 l 1051 529 l 1053 644 l 1167 644 l 1168 760 m 1285 181 l 938 181 l 938 297 l 706 297 l 706 413 l 938 413 l 938 297 l 1400 297 l 1400 65 l 1285 65 l 1285 181 m 1168 -167 l 1053 -167 l 1053 -50 l 938 -50 l 938 65 l 821 65 l 821 181 l 938 181 l 938 65 l 1053 65 l 1053 -50 l 1168 -50 l 1168 -167 m 1053 -282 l 706 -282 l 706 -167 l 1053 -167 l 1053 -282 m 1285 -50 l 1168 -50 l 1168 65 l 1285 65 l 1285 -50 m 821 -50 l 706 -50 l 706 65 l 821 65 l 821 -50 m 242 65 l 126 65 l 126 181 l 242 181 l 242 65 m 821 644 l 706 644 l 706 760 l 819 760 l 821 644 z "},"站":{"ha":1528,"x_min":126,"x_max":1400,"o":"m 1053 992 l 1168 992 l 1168 760 l 1400 760 l 1400 644 l 1168 644 l 1168 297 l 1400 297 l 1400 -282 l 821 -282 l 821 297 l 1053 297 l 1053 992 m 1285 181 l 938 181 l 938 -167 l 1285 -167 l 1285 181 m 358 992 l 474 992 l 474 760 l 706 760 l 706 644 l 126 644 l 126 760 l 358 760 l 358 992 m 126 529 l 242 529 l 242 297 l 358 297 l 358 -50 l 242 -50 l 242 297 l 126 297 l 126 529 m 589 -50 l 706 -50 l 706 -167 l 474 -167 l 474 181 l 589 181 l 589 -50 m 589 529 l 706 529 l 706 181 l 589 181 l 589 529 m 474 -282 l 126 -282 l 126 -167 l 474 -167 l 474 -282 z "},"纵":{"ha":1528,"x_min":126,"x_max":1400,"o":"m 589 992 l 706 992 l 706 65 l 821 65 l 821 -167 l 938 -167 l 938 -282 l 821 -282 l 821 -167 l 706 -167 l 706 65 l 589 65 l 589 992 m 1053 992 l 1168 992 l 1168 65 l 1285 65 l 1285 -167 l 1400 -167 l 1400 -282 l 1285 -282 l 1285 -167 l 1168 -167 l 1168 65 l 1053 65 l 1053 992 m 242 644 l 474 644 l 474 529 l 358 529 l 358 297 l 242 297 l 242 529 l 126 529 l 126 760 l 242 760 l 242 644 m 242 181 l 474 181 l 474 65 l 589 65 l 589 -167 l 474 -167 l 474 65 l 126 65 l 126 297 l 242 297 l 242 181 m 242 992 l 358 992 l 358 760 l 242 760 l 242 992 m 474 -282 l 358 -282 l 358 -167 l 242 -167 l 242 -50 l 358 -50 l 358 -167 l 474 -167 l 474 -282 m 938 65 l 1053 65 l 1053 -167 l 938 -167 l 938 65 m 242 -282 l 126 -282 l 126 -167 l 242 -167 l 242 -282 z "},"经":{"ha":1528,"x_min":126,"x_max":1400,"o":"m 589 181 l 1400 181 l 1400 65 l 1053 65 l 1053 -167 l 1400 -167 l 1400 -282 l 589 -282 l 589 -167 l 938 -167 l 938 65 l 589 65 l 589 181 m 589 992 l 1400 992 l 1400 876 l 1285 876 l 1285 760 l 1168 760 l 1168 876 l 589 876 l 589 992 m 242 644 l 474 644 l 474 529 l 358 529 l 358 297 l 242 297 l 242 529 l 126 529 l 126 760 l 242 760 l 242 644 m 242 181 l 474 181 l 474 65 l 126 65 l 126 297 l 242 297 l 242 181 m 1053 529 l 1168 529 l 1168 413 l 1400 413 l 1400 297 l 1168 297 l 1168 413 l 1053 413 l 1053 529 l 938 529 l 938 644 l 1053 644 l 1053 529 m 242 992 l 358 992 l 358 760 l 242 760 l 242 992 m 821 297 l 589 297 l 589 413 l 821 413 l 821 297 m 358 -282 l 126 -282 l 126 -167 l 358 -167 l 358 -282 m 938 413 l 821 413 l 821 529 l 938 529 l 938 413 m 358 -50 l 474 -50 l 474 -167 l 358 -167 l 358 -50 m 1168 644 l 1053 644 l 1053 760 l 1168 760 l 1168 644 z "},"罢":{"ha":1528,"x_min":126,"x_max":1400,"o":"m 126 992 l 1400 992 l 1400 529 l 821 529 l 821 413 l 1285 413 l 1285 297 l 821 297 l 821 181 l 1400 181 l 1400 65 l 589 65 l 589 -50 l 474 -50 l 474 65 l 126 65 l 126 181 l 706 181 l 706 297 l 242 297 l 242 413 l 706 413 l 706 529 l 126 529 l 126 992 m 474 -167 l 1168 -167 l 1168 -282 l 126 -282 l 126 -167 l 358 -167 l 358 -50 l 474 -50 l 474 -167 m 938 876 l 589 876 l 589 644 l 938 644 l 938 876 m 474 876 l 242 876 l 242 644 l 474 644 l 474 876 m 1285 876 l 1053 876 l 1053 644 l 1285 644 l 1285 876 m 1168 -50 l 1285 -50 l 1285 -167 l 1400 -167 l 1400 -282 l 1285 -282 l 1285 -167 l 1168 -167 l 1168 -50 z "},"自":{"ha":1528,"x_min":243,"x_max":1285,"o":"m 590 992 l 822 992 l 822 876 l 1285 876 l 1285 -282 l 243 -282 l 243 876 l 590 876 l 590 992 m 1169 65 l 358 65 l 358 -167 l 1169 -167 l 1169 65 m 1169 413 l 358 413 l 358 181 l 1169 181 l 1169 413 m 1169 760 l 358 760 l 358 529 l 1169 529 l 1169 760 z "},"角":{"ha":1528,"x_min":185,"x_max":1342,"o":"m 417 992 l 532 992 l 532 876 l 1226 876 l 1226 644 l 1342 644 l 1342 -282 l 1110 -282 l 1110 -167 l 1226 -167 l 1226 65 l 879 65 l 879 -282 l 763 -282 l 763 65 l 417 65 l 417 -167 l 300 -167 l 300 529 l 185 529 l 185 644 l 300 644 l 300 760 l 417 760 l 417 992 m 1110 760 l 418 760 l 417 644 l 1110 644 l 1110 760 m 1226 529 l 879 529 l 879 413 l 1226 413 l 1226 529 m 1226 297 l 879 297 l 879 181 l 1226 181 l 1226 297 m 763 297 l 417 297 l 417 181 l 763 181 l 763 297 m 763 529 l 417 529 l 417 413 l 763 413 l 763 529 m 300 -282 l 185 -282 l 185 -167 l 300 -167 l 300 -282 z "},"设":{"ha":1528,"x_min":126,"x_max":1400,"o":"m 1285 297 l 706 297 l 706 181 l 821 181 l 821 65 l 938 65 l 938 -50 l 1053 -50 l 1053 -167 l 1400 -167 l 1400 -282 l 1053 -282 l 1053 -167 l 938 -167 l 938 -50 l 821 -50 l 821 65 l 706 65 l 706 181 l 589 181 l 589 413 l 1400 413 l 1400 181 l 1285 181 l 1285 297 m 706 992 l 1285 992 l 1285 644 l 1400 644 l 1400 529 l 1168 529 l 1168 876 l 821 876 l 821 529 l 589 529 l 589 644 l 706 644 l 706 992 m 126 644 l 358 644 l 358 -50 l 474 -50 l 474 -167 l 358 -167 l 358 -282 l 126 -282 l 126 -167 l 242 -167 l 242 529 l 126 529 l 126 644 m 938 -282 l 589 -282 l 589 -167 l 938 -167 l 938 -282 m 126 992 l 242 992 l 242 876 l 358 876 l 358 760 l 242 760 l 242 876 l 126 876 l 126 992 m 1285 65 l 1168 65 l 1168 181 l 1285 181 l 1285 65 m 1168 -50 l 1053 -50 l 1053 65 l 1168 65 l 1168 -50 z "},"请":{"ha":1528,"x_min":126,"x_max":1400,"o":"m 938 992 l 1053 992 l 1053 876 l 1400 876 l 1400 760 l 1053 760 l 1053 644 l 1285 644 l 1285 529 l 1053 529 l 1053 413 l 1400 413 l 1400 297 l 1285 297 l 1285 -282 l 1168 -282 l 1168 -167 l 821 -167 l 821 -282 l 706 -282 l 706 297 l 589 297 l 589 413 l 938 413 l 938 529 l 706 529 l 706 644 l 938 644 l 938 760 l 589 760 l 589 876 l 938 876 l 938 992 m 126 644 l 358 644 l 358 -50 l 474 -50 l 474 -167 l 358 -167 l 358 -282 l 126 -282 l 126 -167 l 242 -167 l 242 529 l 126 529 l 126 644 m 1168 297 l 821 297 l 821 181 l 1168 181 l 1168 297 m 1168 65 l 821 65 l 821 -50 l 1168 -50 l 1168 65 m 126 992 l 242 992 l 242 876 l 358 876 l 358 760 l 242 760 l 242 876 l 126 876 l 126 992 z "},"还":{"ha":1528,"x_min":126,"x_max":1400,"o":"m 126 529 l 358 529 l 358 -167 l 1400 -167 l 1400 -282 l 358 -282 l 358 -167 l 242 -167 l 242 413 l 126 413 l 126 529 m 474 992 l 1400 992 l 1400 876 l 1053 876 l 1053 760 l 938 760 l 938 876 l 474 876 l 474 992 m 938 -50 l 821 -50 l 821 529 l 706 529 l 706 644 l 821 644 l 821 760 l 938 760 l 938 -50 m 1053 529 l 1168 529 l 1168 413 l 1400 413 l 1400 297 l 1168 297 l 1168 413 l 1053 413 l 1053 529 m 126 992 l 242 992 l 242 876 l 358 876 l 358 760 l 242 760 l 242 876 l 126 876 l 126 992 m 706 413 l 589 413 l 589 529 l 706 529 l 706 413 m 242 -282 l 126 -282 l 126 -167 l 242 -167 l 242 -282 m 589 297 l 474 297 l 474 413 l 589 413 l 589 297 z "},"这":{"ha":1528,"x_min":126,"x_max":1400,"o":"m 1168 760 l 706 760 l 706 413 l 821 413 l 821 181 l 1053 181 l 1053 65 l 1400 65 l 1400 -50 l 1053 -50 l 1053 65 l 821 65 l 821 181 l 706 181 l 706 413 l 589 413 l 589 760 l 474 760 l 474 876 l 821 876 l 821 992 l 938 992 l 938 876 l 1400 876 l 1400 760 l 1285 760 l 1285 413 l 1168 413 l 1168 760 m 126 529 l 358 529 l 358 -167 l 1400 -167 l 1400 -282 l 358 -282 l 358 -167 l 242 -167 l 242 413 l 126 413 l 126 529 m 821 -50 l 474 -50 l 474 65 l 821 65 l 821 -50 m 126 992 l 242 992 l 242 876 l 358 876 l 358 760 l 242 760 l 242 876 l 126 876 l 126 992 m 1168 181 l 1053 181 l 1053 413 l 1168 413 l 1168 181 m 242 -282 l 126 -282 l 126 -167 l 242 -167 l 242 -282 z "},"道":{"ha":1528,"x_min":126,"x_max":1400,"o":"m 706 992 l 821 992 l 821 876 l 1053 876 l 1053 992 l 1168 992 l 1168 876 l 1400 876 l 1400 760 l 938 760 l 938 644 l 1285 644 l 1285 -167 l 1400 -167 l 1400 -282 l 358 -282 l 358 -167 l 242 -167 l 242 413 l 126 413 l 126 529 l 358 529 l 358 -167 l 589 -167 l 589 644 l 821 644 l 821 760 l 474 760 l 474 876 l 706 876 l 706 992 m 1168 65 l 706 65 l 706 -167 l 1168 -167 l 1168 65 m 1168 297 l 706 297 l 706 181 l 1168 181 l 1168 297 m 1168 529 l 706 529 l 706 413 l 1168 413 l 1168 529 m 126 992 l 242 992 l 242 876 l 358 876 l 358 760 l 242 760 l 242 876 l 126 876 l 126 992 m 242 -282 l 126 -282 l 126 -167 l 242 -167 l 242 -282 z "},"部":{"ha":1528,"x_min":126,"x_max":1400,"o":"m 474 992 l 589 992 l 589 876 l 938 876 l 938 992 l 1400 992 l 1400 644 l 1285 644 l 1285 413 l 1400 413 l 1400 65 l 1285 65 l 1285 -50 l 1053 -50 l 1053 -282 l 938 -282 l 938 297 l 126 297 l 126 413 l 358 413 l 358 529 l 242 529 l 242 760 l 126 760 l 126 876 l 474 876 l 474 992 m 242 181 l 821 181 l 821 -282 l 242 -282 l 242 181 m 1285 876 l 1053 876 l 1053 65 l 1283 65 l 1283 413 l 1168 413 l 1168 644 l 1283 644 l 1285 876 m 938 760 l 821 760 l 821 529 l 706 529 l 706 760 l 358 760 l 358 529 l 474 529 l 474 413 l 589 413 l 589 529 l 704 529 l 706 413 l 938 413 l 938 760 m 706 65 l 358 65 l 358 -167 l 706 -167 l 706 65 z "},"链":{"ha":1528,"x_min":126,"x_max":1400,"o":"m 1168 644 l 1053 644 l 1053 760 l 938 760 l 938 876 l 1053 876 l 1053 992 l 1168 992 l 1168 876 l 1400 876 l 1400 760 l 1168 760 l 1168 644 l 1285 644 l 1285 529 l 1400 529 l 1400 413 l 1285 413 l 1285 181 l 1400 181 l 1400 65 l 1285 65 l 1285 -50 l 1168 -50 l 1168 65 l 938 65 l 938 181 l 1168 181 l 1168 413 l 938 413 l 938 644 l 1053 644 l 1053 529 l 1168 529 l 1168 644 m 589 644 l 821 644 l 821 -167 l 1400 -167 l 1400 -282 l 821 -282 l 821 -167 l 706 -167 l 706 529 l 589 529 l 589 644 m 126 529 l 474 529 l 474 413 l 358 413 l 358 181 l 474 181 l 474 65 l 358 65 l 358 -167 l 474 -167 l 474 -282 l 242 -282 l 242 65 l 126 65 l 126 181 l 242 181 l 242 413 l 126 413 l 126 529 m 242 992 l 358 992 l 358 876 l 474 876 l 474 760 l 242 760 l 242 992 m 589 992 l 706 992 l 706 876 l 821 876 l 821 760 l 706 760 l 706 876 l 589 876 l 589 992 m 706 -282 l 589 -282 l 589 -167 l 706 -167 l 706 -282 m 242 644 l 126 644 l 126 760 l 242 760 l 242 644 z "},"需":{"ha":1528,"x_min":126,"x_max":1400,"o":"m 126 297 l 1400 297 l 1400 181 l 821 181 l 821 65 l 1400 65 l 1400 -282 l 1168 -282 l 1168 -167 l 1285 -167 l 1285 -50 l 1053 -50 l 1053 -282 l 938 -282 l 938 -50 l 589 -50 l 589 -282 l 474 -282 l 474 -50 l 242 -50 l 242 -282 l 126 -282 l 126 65 l 706 65 l 706 181 l 126 181 l 126 297 m 126 992 l 1400 992 l 1400 876 l 821 876 l 821 760 l 1400 760 l 1400 413 l 1285 413 l 1285 644 l 821 644 l 821 413 l 706 413 l 706 644 l 242 644 l 242 413 l 126 413 l 126 760 l 706 760 l 706 876 l 126 876 l 126 992 m 938 529 l 1168 529 l 1168 413 l 938 413 l 938 529 m 358 529 l 589 529 l 589 413 l 358 413 l 358 529 z "},"频":{"ha":1528,"x_min":126,"x_max":1400,"o":"m 821 760 l 589 760 l 589 529 l 821 529 l 821 760 l 1053 760 l 1053 876 l 821 876 l 821 992 l 1400 992 l 1400 876 l 1168 876 l 1168 760 l 1400 760 l 1400 -50 l 1285 -50 l 1285 644 l 938 644 l 938 -50 l 1053 -50 l 1053 -167 l 938 -167 l 938 -50 l 706 -50 l 706 65 l 821 65 l 821 413 l 589 413 l 589 65 l 474 65 l 474 413 l 126 413 l 126 529 l 242 529 l 242 876 l 358 876 l 358 529 l 474 529 l 474 992 l 589 992 l 589 876 l 819 876 l 821 760 m 1285 -167 l 1400 -167 l 1400 -282 l 1285 -282 l 1285 -167 l 1168 -167 l 1168 -50 l 1053 -50 l 1053 413 l 1168 413 l 1168 -50 l 1285 -50 l 1285 -167 m 474 -282 l 126 -282 l 126 -167 l 474 -167 l 474 -282 m 706 -167 l 474 -167 l 474 -50 l 706 -50 l 706 -167 m 242 297 l 358 297 l 358 181 l 242 181 l 242 297 m 938 -282 l 821 -282 l 821 -167 l 938 -167 l 938 -282 m 242 65 l 126 65 l 126 181 l 242 181 l 242 65 z "},"！":{"ha":1528,"x_min":706,"x_max":821,"o":"m 706 875 l 821 875 l 821 296 l 706 296 l 706 875 m 706 65 l 821 65 l 821 -167 l 706 -167 l 706 65 z "},"（":{"ha":1528,"x_min":532,"x_max":994,"o":"m 647 181 l 763 181 l 763 -50 l 879 -50 l 879 -167 l 994 -167 l 994 -282 l 879 -282 l 879 -167 l 763 -167 l 763 -50 l 647 -50 l 647 181 l 532 181 l 532 529 l 647 529 l 647 181 m 763 529 l 647 529 l 647 760 l 763 760 l 763 529 m 879 760 l 763 760 l 763 876 l 879 876 l 879 760 m 879 992 l 994 992 l 994 876 l 879 876 l 879 992 z "},"，":{"ha":1528,"x_min":647,"x_max":879,"o":"m 647 296 l 879 296 l 879 -51 l 763 -51 l 763 64 l 647 64 l 647 296 m 763 -167 l 647 -167 l 647 -51 l 763 -51 l 763 -167 z "}}}
